<svg xmlns="http://www.w3.org/2000/svg" xmlns:xlink="http://www.w3.org/1999/xlink" width="500" zoomAndPan="magnify" viewBox="0 0 375 374.999991" height="500" preserveAspectRatio="xMidYMid meet" version="1.0"><defs><g/><clipPath id="86d7f3e92d"><path d="M 35.40625 36.605469 L 207 36.605469 L 207 185 L 35.40625 185 Z M 35.40625 36.605469 " clip-rule="nonzero"/></clipPath><clipPath id="0aee554481"><path d="M 169 114 L 339.90625 114 L 339.90625 262 L 169 262 Z M 169 114 " clip-rule="nonzero"/></clipPath><clipPath id="9bf987b442"><path d="M 35.40625 190 L 207 190 L 207 338.105469 L 35.40625 338.105469 Z M 35.40625 190 " clip-rule="nonzero"/></clipPath><clipPath id="96c01eb0a3"><path d="M 70.875 64.128906 L 173.625 64.128906 L 173.625 156.378906 L 70.875 156.378906 Z M 70.875 64.128906 " clip-rule="nonzero"/></clipPath><clipPath id="fc81502855"><path d="M 114.84375 53 L 129.84375 53 L 129.84375 64.25 L 114.84375 64.25 Z M 114.84375 53 " clip-rule="nonzero"/></clipPath></defs><g clip-path="url(#86d7f3e92d)"><path fill="#000000" d="M 163.449219 184.179688 L 78.085938 184.179688 L 35.40625 110.398438 L 78.085938 36.617188 L 163.449219 36.617188 L 206.128906 110.398438 Z M 81.402344 178.449219 L 160.132812 178.449219 L 199.496094 110.398438 L 160.132812 42.347656 L 81.402344 42.347656 L 42.039062 110.398438 Z M 81.402344 178.449219 " fill-opacity="1" fill-rule="nonzero"/></g><g clip-path="url(#0aee554481)"><path fill="#000000" d="M 297.230469 261.566406 L 211.867188 261.566406 L 169.1875 187.785156 L 211.867188 114.003906 L 297.230469 114.003906 L 339.910156 187.785156 Z M 215.183594 255.835938 L 293.914062 255.835938 L 333.277344 187.785156 L 293.914062 119.734375 L 215.183594 119.734375 L 175.816406 187.785156 Z M 215.183594 255.835938 " fill-opacity="1" fill-rule="nonzero"/></g><g clip-path="url(#9bf987b442)"><path fill="#000000" d="M 163.449219 338.09375 L 78.085938 338.09375 L 35.40625 264.3125 L 78.085938 190.53125 L 163.449219 190.53125 L 206.128906 264.3125 Z M 81.402344 332.363281 L 160.132812 332.363281 L 199.496094 264.3125 L 160.132812 196.265625 L 81.402344 196.265625 L 42.039062 264.3125 Z M 81.402344 332.363281 " fill-opacity="1" fill-rule="nonzero"/></g><g clip-path="url(#96c01eb0a3)"><path fill="#cda349" d="M 122.253906 156.363281 L 109.730469 143.90625 L 109.730469 122.648438 L 127.21875 105.25 L 122.253906 100.3125 L 94.082031 128.332031 L 70.875 105.25 L 94.082031 82.164062 L 112.863281 100.847656 L 117.828125 95.910156 L 108.433594 86.566406 L 122.25 72.824219 L 136.0625 86.566406 L 126.671875 95.910156 L 131.640625 100.847656 L 150.417969 82.164062 L 173.625 105.25 L 150.417969 128.335938 L 131.640625 109.652344 L 115.988281 125.222656 L 115.988281 141.328125 L 122.25 147.554688 L 128.507812 141.328125 L 128.507812 123.929688 L 134.769531 123.929688 L 134.769531 143.902344 Z M 136.070312 105.25 L 150.425781 119.53125 L 164.78125 105.25 L 150.425781 90.972656 Z M 79.730469 105.25 L 94.082031 119.53125 L 108.433594 105.25 L 94.082031 90.972656 Z M 117.289062 86.566406 L 122.253906 91.507812 L 127.21875 86.566406 L 122.253906 81.632812 Z M 109.105469 67.886719 C 109.105469 69.949219 110.785156 71.625 112.863281 71.625 C 114.941406 71.625 116.621094 69.953125 116.621094 67.886719 C 116.621094 65.824219 114.941406 64.148438 112.863281 64.148438 C 110.785156 64.148438 109.105469 65.820312 109.105469 67.886719 Z M 131.640625 71.621094 C 133.710938 71.621094 135.394531 69.949219 135.394531 67.882812 C 135.394531 65.820312 133.714844 64.144531 131.640625 64.144531 C 129.566406 64.144531 127.882812 65.816406 127.882812 67.882812 C 127.886719 69.949219 129.566406 71.621094 131.640625 71.621094 Z M 131.640625 71.621094 " fill-opacity="1" fill-rule="nonzero"/></g><path fill="#cea348" d="M 119.164062 59.171875 L 119.847656 57.570312 L 118.65625 55.101562 L 117.648438 57.671875 L 119.164062 59.171875 " fill-opacity="1" fill-rule="nonzero"/><path fill="#cea348" d="M 125.496094 59.171875 L 124.8125 57.570312 L 126.007812 55.101562 L 127.011719 57.671875 L 125.496094 59.171875 " fill-opacity="1" fill-rule="nonzero"/><g clip-path="url(#fc81502855)"><path fill="#cea348" d="M 125.351562 60.027344 L 122.34375 53.003906 L 119.335938 60.027344 L 114.84375 55.589844 L 116.25 64.253906 L 116.25 58.789062 L 119.898438 62.398438 L 122.34375 56.6875 L 124.785156 62.398438 L 128.433594 58.789062 L 128.433594 64.253906 L 129.839844 55.589844 L 125.351562 60.027344 " fill-opacity="1" fill-rule="nonzero"/></g><g fill="#000000" fill-opacity="1"><g transform="translate(218.016114, 197.392619)"><g><path d="M 0.984375 0 L 0.984375 -0.265625 L 1.328125 -0.265625 C 2.742188 -0.265625 3.453125 -0.882812 3.453125 -2.125 L 3.453125 -16.53125 C 3.453125 -17.707031 2.742188 -18.296875 1.328125 -18.296875 L 0.984375 -18.296875 L 0.984375 -18.5625 L 8.546875 -18.5625 L 8.546875 -18.296875 L 8.21875 -18.296875 C 6.789062 -18.296875 6.078125 -17.675781 6.078125 -16.4375 L 6.078125 -7.703125 L 12.71875 -15.203125 C 13.613281 -16.210938 14.0625 -16.953125 14.0625 -17.421875 C 14.0625 -17.992188 13.25 -18.28125 11.625 -18.28125 L 11.625 -18.5625 L 17.375 -18.5625 L 17.375 -18.28125 C 16.78125 -18.28125 16.210938 -18.101562 15.671875 -17.75 C 15.140625 -17.394531 14.457031 -16.75 13.625 -15.8125 L 9.625 -11.3125 L 15.34375 -3.203125 C 16.132812 -2.078125 16.75 -1.304688 17.1875 -0.890625 C 17.632812 -0.472656 18.054688 -0.265625 18.453125 -0.265625 L 18.515625 -0.265625 L 18.515625 0 L 18.21875 0 C 17.351562 0 16.640625 -0.03125 16.078125 -0.09375 C 15.515625 -0.164062 15.050781 -0.289062 14.6875 -0.46875 C 14.320312 -0.644531 13.992188 -0.882812 13.703125 -1.1875 C 13.410156 -1.488281 13.097656 -1.875 12.765625 -2.34375 L 7.875 -9.328125 L 6.078125 -7.28125 L 6.078125 -2.125 C 6.078125 -0.882812 6.789062 -0.265625 8.21875 -0.265625 L 8.546875 -0.265625 L 8.546875 0 Z M 0.984375 0 "/></g></g></g><g fill="#000000" fill-opacity="1"><g transform="translate(236.210662, 197.392619)"><g><path d="M 0 0 L 0 -0.265625 L 0.75 -0.265625 C 1.3125 -0.265625 1.75 -0.410156 2.0625 -0.703125 C 2.382812 -0.992188 2.675781 -1.519531 2.9375 -2.28125 L 8.609375 -18.5625 L 9.9375 -18.5625 L 16.453125 -1.640625 C 16.648438 -1.117188 16.859375 -0.757812 17.078125 -0.5625 C 17.304688 -0.363281 17.609375 -0.265625 17.984375 -0.265625 L 18.328125 -0.265625 L 18.328125 0 L 11.1875 0 L 11.1875 -0.265625 L 11.78125 -0.265625 C 12.4375 -0.265625 12.910156 -0.34375 13.203125 -0.5 C 13.503906 -0.65625 13.65625 -0.929688 13.65625 -1.328125 C 13.65625 -1.460938 13.632812 -1.628906 13.59375 -1.828125 C 13.5625 -2.023438 13.503906 -2.238281 13.421875 -2.46875 L 11.828125 -6.734375 L 4.78125 -6.734375 L 3.359375 -2.65625 C 3.203125 -2.195312 3.125 -1.820312 3.125 -1.53125 C 3.125 -1.0625 3.332031 -0.734375 3.75 -0.546875 C 4.164062 -0.359375 4.832031 -0.265625 5.75 -0.265625 L 6.34375 -0.265625 L 6.34375 0 Z M 4.859375 -7 L 11.71875 -7 L 9.828125 -12.0625 C 9.148438 -13.8125 8.613281 -15.375 8.21875 -16.75 C 8.039062 -16.226562 7.882812 -15.765625 7.75 -15.359375 C 7.625 -14.960938 7.488281 -14.539062 7.34375 -14.09375 C 7.195312 -13.65625 7.007812 -13.125 6.78125 -12.5 Z M 4.859375 -7 "/></g></g></g><g fill="#000000" fill-opacity="1"><g transform="translate(254.535169, 197.392619)"><g><path d="M 0.984375 0 L 0.984375 -0.265625 L 1.328125 -0.265625 C 2.742188 -0.265625 3.453125 -0.882812 3.453125 -2.125 L 3.453125 -16.53125 C 3.453125 -17.707031 2.742188 -18.296875 1.328125 -18.296875 L 0.984375 -18.296875 L 0.984375 -18.5625 L 8.546875 -18.5625 L 8.546875 -18.296875 L 8.21875 -18.296875 C 6.789062 -18.296875 6.078125 -17.675781 6.078125 -16.4375 L 6.078125 -0.265625 L 10.890625 -0.265625 C 11.804688 -0.265625 12.535156 -0.394531 13.078125 -0.65625 C 13.628906 -0.925781 14.035156 -1.390625 14.296875 -2.046875 C 14.554688 -2.710938 14.722656 -3.609375 14.796875 -4.734375 L 14.84375 -5.59375 L 15.109375 -5.59375 L 14.921875 0 Z M 0.984375 0 "/></g></g></g><g fill="#000000" fill-opacity="1"><g transform="translate(270.728318, 197.392619)"><g><path d="M 0 0 L 0 -0.265625 L 0.75 -0.265625 C 1.3125 -0.265625 1.75 -0.410156 2.0625 -0.703125 C 2.382812 -0.992188 2.675781 -1.519531 2.9375 -2.28125 L 8.609375 -18.5625 L 9.9375 -18.5625 L 16.453125 -1.640625 C 16.648438 -1.117188 16.859375 -0.757812 17.078125 -0.5625 C 17.304688 -0.363281 17.609375 -0.265625 17.984375 -0.265625 L 18.328125 -0.265625 L 18.328125 0 L 11.1875 0 L 11.1875 -0.265625 L 11.78125 -0.265625 C 12.4375 -0.265625 12.910156 -0.34375 13.203125 -0.5 C 13.503906 -0.65625 13.65625 -0.929688 13.65625 -1.328125 C 13.65625 -1.460938 13.632812 -1.628906 13.59375 -1.828125 C 13.5625 -2.023438 13.503906 -2.238281 13.421875 -2.46875 L 11.828125 -6.734375 L 4.78125 -6.734375 L 3.359375 -2.65625 C 3.203125 -2.195312 3.125 -1.820312 3.125 -1.53125 C 3.125 -1.0625 3.332031 -0.734375 3.75 -0.546875 C 4.164062 -0.359375 4.832031 -0.265625 5.75 -0.265625 L 6.34375 -0.265625 L 6.34375 0 Z M 4.859375 -7 L 11.71875 -7 L 9.828125 -12.0625 C 9.148438 -13.8125 8.613281 -15.375 8.21875 -16.75 C 8.039062 -16.226562 7.882812 -15.765625 7.75 -15.359375 C 7.625 -14.960938 7.488281 -14.539062 7.34375 -14.09375 C 7.195312 -13.65625 7.007812 -13.125 6.78125 -12.5 Z M 4.859375 -7 "/></g></g></g><g fill="#000000" fill-opacity="1"><g transform="translate(50.595239, 274.051124)"><g><path d="M 0.984375 0 L 0.984375 -0.265625 L 1.328125 -0.265625 C 2.742188 -0.265625 3.453125 -0.882812 3.453125 -2.125 L 3.453125 -16.53125 C 3.453125 -17.707031 2.742188 -18.296875 1.328125 -18.296875 L 0.984375 -18.296875 L 0.984375 -18.5625 L 8.9375 -18.5625 C 11.613281 -18.5625 13.695312 -17.753906 15.1875 -16.140625 C 16.675781 -14.535156 17.421875 -12.257812 17.421875 -9.3125 C 17.421875 -7.40625 17.101562 -5.753906 16.46875 -4.359375 C 15.832031 -2.972656 14.882812 -1.898438 13.625 -1.140625 C 12.375 -0.378906 10.8125 0 8.9375 0 Z M 6.078125 -0.265625 L 8.34375 -0.265625 C 10.507812 -0.265625 12.082031 -0.976562 13.0625 -2.40625 C 14.039062 -3.832031 14.53125 -6.132812 14.53125 -9.3125 C 14.53125 -12.46875 14.039062 -14.753906 13.0625 -16.171875 C 12.082031 -17.585938 10.519531 -18.296875 8.375 -18.296875 L 6.078125 -18.296875 Z M 6.078125 -0.265625 "/></g></g></g><g fill="#000000" fill-opacity="1"><g transform="translate(69.491574, 274.051124)"><g><path d="M 0.984375 0 L 0.984375 -0.265625 L 1.328125 -0.265625 C 2.742188 -0.265625 3.453125 -0.882812 3.453125 -2.125 L 3.453125 -16.53125 C 3.453125 -17.707031 2.742188 -18.296875 1.328125 -18.296875 L 0.984375 -18.296875 L 0.984375 -18.5625 L 14.0625 -18.5625 L 14.21875 -14.015625 L 13.96875 -14.015625 L 13.90625 -14.875 C 13.820312 -16.175781 13.519531 -17.070312 13 -17.5625 C 12.476562 -18.050781 11.5625 -18.296875 10.25 -18.296875 L 6.078125 -18.296875 L 6.078125 -9.859375 L 12.609375 -9.859375 L 12.609375 -9.59375 L 6.078125 -9.59375 L 6.078125 -0.265625 L 10.890625 -0.265625 C 11.828125 -0.265625 12.566406 -0.367188 13.109375 -0.578125 C 13.660156 -0.785156 14.066406 -1.140625 14.328125 -1.640625 C 14.585938 -2.140625 14.742188 -2.820312 14.796875 -3.6875 L 14.84375 -4.546875 L 15.109375 -4.546875 L 14.921875 0 Z M 0.984375 0 "/></g></g></g><g fill="#000000" fill-opacity="1"><g transform="translate(85.684722, 274.051124)"><g><path d="M 8.15625 0 L 2.203125 -16.90625 C 2.015625 -17.4375 1.789062 -17.800781 1.53125 -18 C 1.269531 -18.195312 0.875 -18.296875 0.34375 -18.296875 L 0 -18.296875 L 0 -18.5625 L 7.15625 -18.5625 L 7.15625 -18.296875 L 6.53125 -18.296875 C 5.96875 -18.296875 5.554688 -18.222656 5.296875 -18.078125 C 5.035156 -17.929688 4.90625 -17.675781 4.90625 -17.3125 C 4.90625 -16.96875 4.992188 -16.5625 5.171875 -16.09375 L 8.390625 -6.8125 C 9.003906 -5.09375 9.472656 -3.582031 9.796875 -2.28125 C 9.992188 -2.945312 10.222656 -3.679688 10.484375 -4.484375 C 10.742188 -5.285156 10.992188 -6.0625 11.234375 -6.8125 L 14.203125 -15.890625 C 14.285156 -16.160156 14.351562 -16.398438 14.40625 -16.609375 C 14.457031 -16.816406 14.484375 -17.007812 14.484375 -17.1875 C 14.484375 -17.601562 14.335938 -17.890625 14.046875 -18.046875 C 13.765625 -18.210938 13.328125 -18.296875 12.734375 -18.296875 L 11.203125 -18.296875 L 11.203125 -18.5625 L 17.546875 -18.5625 L 17.546875 -18.296875 L 16.609375 -18.296875 C 16.109375 -18.296875 15.71875 -18.148438 15.4375 -17.859375 C 15.164062 -17.566406 14.90625 -17.046875 14.65625 -16.296875 L 9.28125 0 Z M 8.15625 0 "/></g></g></g><g fill="#000000" fill-opacity="1"><g transform="translate(103.229463, 274.051124)"><g><path d="M 0.984375 0 L 0.984375 -0.265625 L 1.328125 -0.265625 C 2.742188 -0.265625 3.453125 -0.882812 3.453125 -2.125 L 3.453125 -16.53125 C 3.453125 -17.707031 2.742188 -18.296875 1.328125 -18.296875 L 0.984375 -18.296875 L 0.984375 -18.5625 L 14.0625 -18.5625 L 14.21875 -14.015625 L 13.96875 -14.015625 L 13.90625 -14.875 C 13.820312 -16.175781 13.519531 -17.070312 13 -17.5625 C 12.476562 -18.050781 11.5625 -18.296875 10.25 -18.296875 L 6.078125 -18.296875 L 6.078125 -9.859375 L 12.609375 -9.859375 L 12.609375 -9.59375 L 6.078125 -9.59375 L 6.078125 -0.265625 L 10.890625 -0.265625 C 11.828125 -0.265625 12.566406 -0.367188 13.109375 -0.578125 C 13.660156 -0.785156 14.066406 -1.140625 14.328125 -1.640625 C 14.585938 -2.140625 14.742188 -2.820312 14.796875 -3.6875 L 14.84375 -4.546875 L 15.109375 -4.546875 L 14.921875 0 Z M 0.984375 0 "/></g></g></g><g fill="#000000" fill-opacity="1"><g transform="translate(119.422612, 274.051124)"><g><path d="M 0.984375 0 L 0.984375 -0.265625 L 1.328125 -0.265625 C 2.742188 -0.265625 3.453125 -0.882812 3.453125 -2.125 L 3.453125 -16.53125 C 3.453125 -17.707031 2.742188 -18.296875 1.328125 -18.296875 L 0.984375 -18.296875 L 0.984375 -18.5625 L 8.546875 -18.5625 L 8.546875 -18.296875 L 8.21875 -18.296875 C 6.789062 -18.296875 6.078125 -17.675781 6.078125 -16.4375 L 6.078125 -0.265625 L 10.890625 -0.265625 C 11.804688 -0.265625 12.535156 -0.394531 13.078125 -0.65625 C 13.628906 -0.925781 14.035156 -1.390625 14.296875 -2.046875 C 14.554688 -2.710938 14.722656 -3.609375 14.796875 -4.734375 L 14.84375 -5.59375 L 15.109375 -5.59375 L 14.921875 0 Z M 0.984375 0 "/></g></g></g><g fill="#000000" fill-opacity="1"><g transform="translate(135.61576, 274.051124)"><g><path d="M 9.640625 0.265625 C 7.804688 0.265625 6.28125 -0.128906 5.0625 -0.921875 C 3.851562 -1.722656 2.945312 -2.84375 2.34375 -4.28125 C 1.75 -5.726562 1.453125 -7.410156 1.453125 -9.328125 C 1.453125 -11.253906 1.75 -12.925781 2.34375 -14.34375 C 2.945312 -15.769531 3.859375 -16.875 5.078125 -17.65625 C 6.304688 -18.445312 7.835938 -18.84375 9.671875 -18.84375 C 11.398438 -18.84375 12.867188 -18.445312 14.078125 -17.65625 C 15.296875 -16.875 16.222656 -15.765625 16.859375 -14.328125 C 17.492188 -12.898438 17.8125 -11.226562 17.8125 -9.3125 C 17.8125 -7.382812 17.492188 -5.703125 16.859375 -4.265625 C 16.222656 -2.835938 15.296875 -1.722656 14.078125 -0.921875 C 12.867188 -0.128906 11.390625 0.265625 9.640625 0.265625 Z M 9.640625 0 C 11.492188 0 12.835938 -0.734375 13.671875 -2.203125 C 14.503906 -3.679688 14.921875 -6.050781 14.921875 -9.3125 C 14.921875 -12.570312 14.503906 -14.929688 13.671875 -16.390625 C 12.835938 -17.859375 11.503906 -18.59375 9.671875 -18.59375 C 7.816406 -18.59375 6.460938 -17.859375 5.609375 -16.390625 C 4.765625 -14.929688 4.34375 -12.570312 4.34375 -9.3125 C 4.34375 -6.050781 4.757812 -3.679688 5.59375 -2.203125 C 6.4375 -0.734375 7.785156 0 9.640625 0 Z M 9.640625 0 "/></g></g></g><g fill="#000000" fill-opacity="1"><g transform="translate(154.901983, 274.051124)"><g><path d="M 0.984375 0 L 0.984375 -0.265625 L 1.328125 -0.265625 C 2.742188 -0.265625 3.453125 -0.882812 3.453125 -2.125 L 3.453125 -16.53125 C 3.453125 -17.707031 2.742188 -18.296875 1.328125 -18.296875 L 0.984375 -18.296875 L 0.984375 -18.5625 L 8.296875 -18.5625 C 10.472656 -18.5625 12.082031 -18.078125 13.125 -17.109375 C 14.164062 -16.140625 14.6875 -14.8125 14.6875 -13.125 C 14.6875 -12.101562 14.460938 -11.140625 14.015625 -10.234375 C 13.578125 -9.335938 12.847656 -8.613281 11.828125 -8.0625 C 10.804688 -7.507812 9.4375 -7.234375 7.71875 -7.234375 L 6.078125 -7.234375 L 6.078125 -2.125 C 6.078125 -0.882812 6.789062 -0.265625 8.21875 -0.265625 L 8.546875 -0.265625 L 8.546875 0 Z M 6.078125 -7.484375 L 7.46875 -7.484375 C 9.039062 -7.484375 10.164062 -7.90625 10.84375 -8.75 C 11.53125 -9.601562 11.875 -11.03125 11.875 -13.03125 C 11.875 -14.914062 11.566406 -16.265625 10.953125 -17.078125 C 10.335938 -17.890625 9.304688 -18.296875 7.859375 -18.296875 L 6.078125 -18.296875 Z M 6.078125 -7.484375 "/></g></g></g><g fill="#000000" fill-opacity="1"><g transform="translate(170.601285, 274.051124)"><g><path d="M 6.703125 0.265625 C 4.992188 0.265625 3.65625 -0.078125 2.6875 -0.765625 C 1.726562 -1.453125 1.25 -2.304688 1.25 -3.328125 C 1.25 -4.535156 1.875 -5.140625 3.125 -5.140625 C 3.132812 -3.441406 3.445312 -2.160156 4.0625 -1.296875 C 4.675781 -0.429688 5.617188 0 6.890625 0 C 7.992188 0 8.890625 -0.316406 9.578125 -0.953125 C 10.265625 -1.597656 10.609375 -2.5625 10.609375 -3.84375 C 10.609375 -4.625 10.460938 -5.253906 10.171875 -5.734375 C 9.890625 -6.222656 9.429688 -6.660156 8.796875 -7.046875 C 8.171875 -7.441406 7.34375 -7.875 6.3125 -8.34375 C 5.78125 -8.601562 5.234375 -8.882812 4.671875 -9.1875 C 4.109375 -9.488281 3.585938 -9.851562 3.109375 -10.28125 C 2.628906 -10.707031 2.242188 -11.222656 1.953125 -11.828125 C 1.671875 -12.429688 1.53125 -13.171875 1.53125 -14.046875 C 1.53125 -15.597656 2.03125 -16.78125 3.03125 -17.59375 C 4.03125 -18.414062 5.359375 -18.828125 7.015625 -18.828125 C 8.023438 -18.828125 8.910156 -18.6875 9.671875 -18.40625 C 10.429688 -18.125 11.023438 -17.757812 11.453125 -17.3125 C 11.878906 -16.863281 12.09375 -16.367188 12.09375 -15.828125 C 12.09375 -15.328125 11.898438 -14.929688 11.515625 -14.640625 C 11.140625 -14.359375 10.644531 -14.21875 10.03125 -14.21875 C 10.03125 -15.65625 9.796875 -16.738281 9.328125 -17.46875 C 8.859375 -18.195312 8.082031 -18.5625 7 -18.5625 C 5.988281 -18.5625 5.179688 -18.257812 4.578125 -17.65625 C 3.984375 -17.050781 3.6875 -16.15625 3.6875 -14.96875 C 3.6875 -14.125 3.84375 -13.441406 4.15625 -12.921875 C 4.46875 -12.398438 4.9375 -11.953125 5.5625 -11.578125 C 6.1875 -11.210938 6.984375 -10.800781 7.953125 -10.34375 C 8.816406 -9.945312 9.617188 -9.53125 10.359375 -9.09375 C 11.097656 -8.664062 11.691406 -8.117188 12.140625 -7.453125 C 12.585938 -6.785156 12.8125 -5.921875 12.8125 -4.859375 C 12.8125 -3.285156 12.28125 -2.035156 11.21875 -1.109375 C 10.15625 -0.191406 8.648438 0.265625 6.703125 0.265625 Z M 6.703125 0.265625 "/></g></g></g></svg>